<?xml version="1.0" encoding="utf-8"?>
<svg width="128" height="128" viewBox="0 0 128 128" fill="none" stroke="none" version="1.1" xmlns:xlink="http://www.w3.org/1999/xlink" xmlns="http://www.w3.org/2000/svg">
  <defs>
    <path id="path_1" d="M128 0L128 0L128 128L0 128L0 0L128 0Z" />
    <rect id="rect_2" x="0" y="0" width="128" height="128" />
    <clipPath id="clip_path_3">
      <use xlink:href="#rect_2" />
    </clipPath>
    <rect id="rect_4" x="0" y="0" width="128" height="16" />
    <clipPath id="clip_path_5">
      <use xlink:href="#rect_4" />
    </clipPath>
    <rect id="rect_6" x="0" y="0" width="32" height="8" />
    <clipPath id="clip_path_7">
      <use xlink:href="#rect_6" />
    </clipPath>
    <rect id="rect_8" x="0" y="0" width="128" height="64" />
    <clipPath id="clip_path_9">
      <use xlink:href="#rect_8" />
    </clipPath>
  </defs>
  <g id="Logo" opacity="1" clip-path="url(#clip_path_3)">
    <g>
      <use xlink:href="#path_1" style="fill:#D87C4A;fill-rule:evenodd;mix-blend-mode:normal;" />
      <g>
        <g clip-path="url(#clip_path_5)" style="mix-blend-mode:normal;" transform="matrix(1 0 -0 1 0 77.4)">
          <path d="M7.48828 15.792L6.60156 15.792Q6.32031 15.792 6.16016 15.71Q6 15.624 5.92188 15.3662L5.74219 14.7842Q5.43359 15.0654 5.13281 15.2764Q4.83203 15.4873 4.51172 15.6318Q4.19141 15.7764 3.83203 15.8467Q3.47266 15.9209 3.03125 15.9209Q2.51172 15.9209 2.07031 15.7803Q1.63281 15.6397 1.31641 15.3623Q1 15.0811 0.824219 14.667Q0.648438 14.249 0.648438 13.6943Q0.648438 13.2334 0.890625 12.7803Q1.13672 12.3272 1.70312 11.9639Q2.27344 11.6006 3.21484 11.3623Q4.16016 11.1201 5.55859 11.0889L5.55859 10.6084Q5.55859 9.78419 5.21094 9.38966Q4.86328 8.99122 4.19922 8.99122Q3.71875 8.99122 3.39844 9.1045Q3.07812 9.21778 2.84375 9.35841Q2.60938 9.49513 2.40625 9.60841Q2.20703 9.72169 1.96875 9.72169Q1.76953 9.72169 1.625 9.61622Q1.48047 9.51075 1.39062 9.35841L1.03125 8.7295Q2.44922 7.43263 4.44922 7.43263Q5.16797 7.43263 5.73047 7.67091Q6.29688 7.90528 6.6875 8.32716Q7.07812 8.74513 7.28125 9.33106Q7.48828 9.91309 7.48828 10.6084L7.48828 15.792ZM3.64844 14.5615Q3.95312 14.5615 4.20703 14.5068Q4.46484 14.4483 4.69141 14.3389Q4.92188 14.2256 5.13281 14.0615Q5.34375 13.8975 5.55859 13.6709L5.55859 12.2881Q4.69531 12.3272 4.11328 12.4365Q3.53516 12.5459 3.18359 12.7139Q2.83203 12.8818 2.68359 13.1045Q2.53516 13.3272 2.53516 13.5928Q2.53516 14.1123 2.84375 14.3389Q3.15234 14.5615 3.64844 14.5615ZM14.3057 9.18263Q14.2237 9.31153 14.1338 9.36622Q14.0479 9.417 13.9112 9.417Q13.7666 9.417 13.6026 9.33888Q13.4385 9.25684 13.2237 9.15919Q13.0088 9.05763 12.7315 8.9795Q12.4541 8.89747 12.0791 8.89747Q11.4971 8.89747 11.1612 9.14747Q10.8252 9.39356 10.8252 9.792Q10.8252 10.0576 10.9971 10.2373Q11.169 10.417 11.4502 10.5537Q11.7354 10.6865 12.0948 10.7959Q12.4541 10.9053 12.8291 11.0342Q13.208 11.1592 13.5674 11.3233Q13.9268 11.4873 14.2119 11.7412Q14.4971 11.9912 14.669 12.3428Q14.8408 12.6943 14.8408 13.1904Q14.8408 13.7842 14.6221 14.2842Q14.4073 14.7842 13.9893 15.1475Q13.5752 15.5108 12.9619 15.7178Q12.3526 15.9209 11.5596 15.9209Q11.1377 15.9209 10.7315 15.8428Q10.3291 15.7686 9.95413 15.6318Q9.58303 15.4951 9.26663 15.3115Q8.95022 15.1279 8.71194 14.9131L9.16897 14.1592Q9.25491 14.0225 9.376 13.9522Q9.49709 13.8818 9.68069 13.8818Q9.86428 13.8818 10.0283 13.9873Q10.1924 14.0889 10.4073 14.21Q10.6221 14.3272 10.9151 14.4326Q11.208 14.5342 11.6573 14.5342Q12.0088 14.5342 12.2588 14.4522Q12.5127 14.3662 12.6768 14.2334Q12.8408 14.0967 12.9151 13.917Q12.9932 13.7373 12.9932 13.5459Q12.9932 13.2568 12.8213 13.0733Q12.6494 12.8897 12.3643 12.7529Q12.0791 12.6162 11.7158 12.5108Q11.3526 12.4014 10.9698 12.2725Q10.5908 12.1436 10.2276 11.9717Q9.86428 11.7998 9.57913 11.5381Q9.29788 11.2725 9.12209 10.8897Q8.95022 10.5029 8.95022 9.95997Q8.95022 9.45606 9.14944 9.00294Q9.35256 8.54591 9.73928 8.20606Q10.1299 7.86231 10.708 7.65919Q11.2862 7.45606 12.0479 7.45606Q12.8955 7.45606 13.5908 7.73731Q14.2862 8.01466 14.751 8.47169L14.3057 9.18263ZM16.4227 15.792L16.4227 7.58497L17.6336 7.58497Q18.0164 7.58497 18.1375 7.94434L18.2625 8.55372Q18.4813 8.31153 18.7157 8.11231Q18.9539 7.91309 19.2196 7.76856Q19.4891 7.62403 19.7938 7.542Q20.1024 7.45606 20.4735 7.45606Q21.2469 7.45606 21.7469 7.87794Q22.2469 8.29591 22.4969 8.99122Q22.6883 8.58497 22.9735 8.292Q23.2625 7.99903 23.6063 7.81544Q23.9539 7.63184 24.3407 7.54591Q24.7274 7.45606 25.1219 7.45606Q25.8016 7.45606 26.3289 7.66309Q26.8563 7.87013 27.2157 8.27247Q27.575 8.67091 27.7625 9.24903Q27.9539 9.82325 27.9539 10.5693L27.9539 15.792L25.9774 15.792L25.9774 10.5693Q25.9774 9.78419 25.6336 9.38966Q25.2899 8.99122 24.6258 8.99122Q24.3211 8.99122 24.0594 9.09669Q23.8016 9.19825 23.6024 9.39747Q23.4071 9.59278 23.2938 9.88966Q23.1844 10.1826 23.1844 10.5693L23.1844 15.792L21.2 15.792L21.2 10.5693Q21.2 9.74513 20.868 9.37013Q20.536 8.99122 19.8875 8.99122Q19.4657 8.99122 19.0907 9.20606Q18.7196 9.417 18.3993 9.78419L18.3993 15.792L16.4227 15.792Z" transform="translate(49.58 0)" style="fill:#000000;" />
        </g>
        <g clip-path="url(#clip_path_7)" style="mix-blend-mode:normal;" transform="translate(0 120)">
          <path d="M1.83203 5.73975L1.83203 7.896L0.480469 7.896L0.480469 2.06788L2.37695 2.06788Q3.00781 2.06788 3.45312 2.19873Q3.90039 2.32764 4.18164 2.56006Q4.46484 2.79248 4.5918 3.10889Q4.7207 3.42334 4.7207 3.79639Q4.7207 4.07959 4.64453 4.33155Q4.56836 4.5835 4.41797 4.79834Q4.26758 5.01123 4.04883 5.1792Q3.83203 5.34717 3.54883 5.45655Q3.68359 5.52491 3.80078 5.62452Q3.91992 5.72413 4.00781 5.86866L5.24805 7.896L4.02344 7.896Q3.68359 7.896 3.53516 7.64014L2.56836 5.94873Q2.50391 5.83545 2.41797 5.78858Q2.33203 5.73975 2.17578 5.73975L1.83203 5.73975ZM1.83203 4.80811L2.37695 4.80811Q2.65234 4.80811 2.8457 4.7378Q3.03906 4.66748 3.16211 4.54444Q3.28711 4.41944 3.34375 4.25342Q3.40039 4.08741 3.40039 3.896Q3.40039 3.51123 3.15039 3.29639Q2.90039 3.07959 2.37695 3.07959L1.83203 3.07959L1.83203 4.80811ZM11.2243 7.896L10.1755 7.896Q9.99969 7.896 9.88445 7.81397Q9.77117 7.73194 9.7282 7.60303L9.38445 6.58741L7.16766 6.58741L6.82391 7.60303Q6.78484 7.71631 6.66766 7.80616Q6.55242 7.896 6.38445 7.896L5.32781 7.896L7.58367 2.06788L8.96844 2.06788L11.2243 7.896ZM7.48016 5.66748L9.07195 5.66748L8.5368 4.07178Q8.48406 3.91944 8.41375 3.71436Q8.34344 3.50733 8.27508 3.26709Q8.21258 3.51123 8.14422 3.72022Q8.07586 3.92725 8.01531 4.07959L7.48016 5.66748ZM16.9836 4.97998Q16.9836 5.6128 16.7648 6.146Q16.548 6.6792 16.1515 7.06983Q15.7551 7.46045 15.1965 7.6792Q14.6398 7.896 13.9601 7.896L11.6965 7.896L11.6965 2.06788L13.9601 2.06788Q14.6398 2.06788 15.1965 2.28858Q15.7551 2.50733 16.1515 2.896Q16.548 3.28467 16.7648 3.81788Q16.9836 4.35108 16.9836 4.97998ZM15.6008 4.97998Q15.6008 4.54834 15.4875 4.20069Q15.3762 3.85108 15.1652 3.61084Q14.9562 3.36866 14.6515 3.23975Q14.3488 3.10889 13.9601 3.10889L13.0558 3.10889L13.0558 6.85694L13.9601 6.85694Q14.3488 6.85694 14.6515 6.72608Q14.9562 6.59522 15.1652 6.35498Q15.3762 6.1128 15.4875 5.76514Q15.6008 5.41553 15.6008 4.97998Z" style="fill:#000000;" />
        </g>
        <g clip-path="url(#clip_path_9)" style="mix-blend-mode:normal;" transform="matrix(1 -0 0 1 0 16.6)">
          <path d="M12 46.2461L1.21875 30.3399L8.82812 30.3399Q9.70312 30.3399 10.1094 30.5743Q10.5312 30.8086 10.8438 31.3555L17.7344 42.3399Q17.8906 41.793 18.125 41.2461Q18.375 40.6993 18.7188 40.1524L24.25 31.5274Q24.6406 30.918 25.0469 30.6368Q25.4688 30.3399 26.0781 30.3399L33.3438 30.3399L22.5312 45.8868L33.7969 63.168L26.1719 63.168Q25.3125 63.168 24.7812 62.7305Q24.25 62.2774 23.9062 61.6993L16.9219 50.2774Q16.6406 51.418 16.125 52.1993L9.98438 61.6993Q9.625 62.2461 9.10938 62.7149Q8.60938 63.168 7.84375 63.168L0.765625 63.168L12 46.2461ZM53.1225 63.6836Q49.5288 63.6836 46.5756 62.7305Q43.6225 61.7618 41.4975 60.0118Q39.3881 58.2461 38.2163 55.7461Q37.06 53.2461 37.06 50.1836Q37.06 46.0743 39.0756 43.2461Q41.0913 40.418 45.3413 39.043Q41.9506 37.6368 40.2631 35.043Q38.5913 32.4493 38.5913 28.793Q38.5913 26.1836 39.6538 23.918Q40.7319 21.6368 42.6538 19.9649Q44.5756 18.2774 47.2475 17.3399Q49.9194 16.3868 53.1225 16.3868Q56.3256 16.3868 58.9975 17.3399Q61.6694 18.2774 63.5756 19.9649Q65.4975 21.6368 66.5756 23.918Q67.6537 26.1836 67.6537 28.793Q67.6537 32.4493 65.9506 35.043Q64.2631 37.6368 60.9038 39.043Q65.1537 40.418 67.1694 43.2461Q69.185 46.0743 69.185 50.1836Q69.185 53.2461 68.0131 55.7461Q66.8412 58.2461 64.7319 60.0118Q62.6225 61.7618 59.6538 62.7305Q56.7006 63.6836 53.1225 63.6836ZM53.1225 57.5118Q55.0756 57.5118 56.5444 56.9493Q58.0131 56.3868 59.0131 55.4024Q60.0288 54.4024 60.5444 53.0274Q61.06 51.6524 61.06 50.043Q61.06 46.2461 58.935 44.293Q56.8256 42.3399 53.1225 42.3399Q49.4038 42.3399 47.2944 44.293Q45.185 46.2461 45.185 50.043Q45.185 51.6524 45.685 53.0274Q46.2006 54.4024 47.2006 55.4024Q48.2163 56.3868 49.685 56.9493Q51.1694 57.5118 53.1225 57.5118ZM53.1225 36.1211Q55.0444 36.1211 56.3569 35.5274Q57.6694 34.918 58.4663 33.918Q59.2631 32.9024 59.5913 31.6055Q59.935 30.3086 59.935 28.9336Q59.935 27.6211 59.5131 26.4336Q59.1069 25.2461 58.2631 24.3399Q57.435 23.418 56.1538 22.8868Q54.8725 22.3399 53.1225 22.3399Q51.3569 22.3399 50.0756 22.8868Q48.7944 23.418 47.9506 24.3399Q47.1069 25.2461 46.7006 26.4336Q46.31 27.6211 46.31 28.9336Q46.31 30.3086 46.6381 31.6055Q46.9819 32.9024 47.7788 33.918Q48.5756 34.918 49.8881 35.5274Q51.2006 36.1211 53.1225 36.1211ZM93.1175 34.2774Q95.7425 34.2774 98.2269 35.1368Q100.711 35.9961 102.586 37.7461Q104.477 39.4805 105.633 42.0743Q106.789 44.668 106.789 48.1211Q106.789 51.3555 105.602 54.1993Q104.414 57.0274 102.274 59.1368Q100.133 61.2461 97.1019 62.4649Q94.0863 63.6836 90.43 63.6836Q86.7269 63.6836 83.7738 62.4961Q80.8363 61.3086 78.7425 59.1836Q76.6644 57.0586 75.555 54.0743Q74.4613 51.0743 74.4613 47.418Q74.4613 44.1524 75.7894 40.7149Q77.1175 37.2774 79.8988 33.5743L90.9456 18.7461Q91.5238 17.9805 92.6175 17.4493Q93.7269 16.9024 95.1644 16.9024L102.211 16.9024L88.4769 33.6993Q88.0394 34.2461 87.6331 34.7305Q87.2269 35.1993 86.8519 35.7149Q88.1956 35.043 89.7425 34.668Q91.2894 34.2774 93.1175 34.2774ZM82.055 48.6368Q82.055 50.5586 82.5706 52.1524Q83.1019 53.7305 84.1331 54.8555Q85.18 55.9649 86.7113 56.5899Q88.2581 57.2149 90.2738 57.2149Q92.1644 57.2149 93.7425 56.5743Q95.3206 55.9336 96.4613 54.793Q97.6019 53.6368 98.2425 52.0899Q98.8831 50.5274 98.8831 48.6993Q98.8831 46.7149 98.2738 45.1368Q97.6644 43.5586 96.5394 42.4493Q95.43 41.3399 93.8519 40.7774Q92.2894 40.1993 90.3988 40.1993Q88.5081 40.1993 86.9769 40.8399Q85.4456 41.4649 84.3363 42.6055Q83.2269 43.7461 82.6331 45.3086Q82.055 46.8555 82.055 48.6368Z" transform="translate(9.6 0)" style="fill:#000000;" />
        </g>
      </g>
    </g>
  </g>
</svg>